<svg xmlns="http://www.w3.org/2000/svg" enable-background="new 0 0 512 512" viewBox="0 0 512 512" id="tv"><path d="M441,131H310.776c-0.611-6.94-2.708-16.573-9.43-26.203l86.726-86.726c3.905-3.905,3.905-10.237,0-14.143
			c-3.905-3.903-10.236-3.904-14.143,0l-86.756,86.756c-20.409-14.102-48.583-12.96-67.915,4.431l-71.186-71.187
			c-3.905-3.903-10.236-3.904-14.143,0c-3.905,3.905-3.905,10.237,0,14.143l73.046,73.047c-3.093,6.069-5.094,12.781-5.737,19.882
			H71c-38.598,0-70,31.401-70,70v190c0,38.599,31.402,70,70,70v40c0,5.522,4.477,10,10,10h50c5.523,0,10-4.478,10-10v-40h230v40
			c0,5.522,4.477,10,10,10h50c5.523,0,10-4.478,10-10v-40c38.598,0,70-31.401,70-70V201C511,162.401,479.598,131,441,131z M491,391
			c0,27.57-22.43,50-50,50H71c-27.57,0-50-22.43-50-50V201c0-27.57,22.43-50,50-50h370c27.57,0,50,22.43,50,50V391z"></path><path d="M281 171H91c-22.056 0-40 17.944-40 40v170c0 22.056 17.944 40 40 40h190c22.056 0 40-17.944 40-40V211C321 188.944 303.056 171 281 171zM301 381c0 11.028-8.972 20-20 20H91c-11.028 0-20-8.972-20-20V211c0-11.028 8.972-20 20-20h190c11.028 0 20 8.972 20 20V381zM436 281h-15v-15c0-5.522-4.477-10-10-10s-10 4.478-10 10v15h-15c-5.523 0-10 4.478-10 10s4.477 10 10 10h15v15c0 5.522 4.477 10 10 10s10-4.478 10-10v-15h15c5.523 0 10-4.478 10-10S441.523 281 436 281zM436 371h-15v-15c0-5.522-4.477-10-10-10s-10 4.478-10 10v15h-15c-5.523 0-10 4.478-10 10s4.477 10 10 10h15v15c0 5.522 4.477 10 10 10s10-4.478 10-10v-15h15c5.523 0 10-4.478 10-10S441.523 371 436 371zM411 236c16.542 0 30-13.458 30-30s-13.458-30-30-30-30 13.458-30 30S394.458 236 411 236zM411 196c5.514 0 10 4.486 10 10s-4.486 10-10 10-10-4.486-10-10S405.486 196 411 196z"></path></svg>